<mxfile host="app.diagrams.net" modified="2023-04-26T03:20:30.669Z" agent="Mozilla/5.0 (X11; Linux x86_64) AppleWebKit/537.36 (KHTML, like Gecko) Chrome/110.0.0.0 Safari/537.36" version="21.1.7" etag="V0K2Rpxgb2qCc8sG4bL0" type="github">
  <diagram name="第 1 页" id="mY92OgvAY6bPNSYlvnZm">
    <mxGraphModel>
      <root>
        <mxCell id="0" />
        <mxCell id="1" parent="0" />
      </root>
    </mxGraphModel>
  </diagram>
</mxfile>
